<svg xmlns="http://www.w3.org/2000/svg" version="1.1" xmlns:xlink="http://www.w3.org/1999/xlink" xmlns:svgjs="http://svgjs.dev/svgjs" width="1920" height="1080" preserveAspectRatio="none" viewBox="0 0 1920 1080"><g mask="url(&quot;#SvgjsMask1170&quot;)" fill="none"><rect width="1920" height="1080" x="0" y="0" fill="rgb(0, 180, 255)"></rect><path d="M2016 1080L0 1080 L0 489.45Q129.86 459.31, 160 589.18Q277.5 546.68, 320 664.18Q354.93 539.11, 480 574.03Q566.34 500.37, 640 586.71Q746.63 597.35, 736 703.98Q876.31 684.29, 896 824.6Q928.42 761.02, 992 793.44Q1033.88 739.32, 1088 781.19Q1132.5 665.69, 1248 710.19Q1272.43 638.63, 1344 663.06Q1456.37 615.43, 1504 727.8Q1561.46 689.26, 1600 746.73Q1648.88 635.61, 1760 684.48Q1763.36 591.84, 1856 595.19Q1881.93 461.13, 2016 487.06z" fill="rgba(255, 255, 255, 1)"></path><path d="M1984 1080L0 1080 L0 998.89Q9.16 848.05, 160 857.2Q203.88 741.08, 320 784.95Q419.95 724.9, 480 824.85Q604.28 789.13, 640 913.42Q757.31 934.73, 736 1052.04Q793.74 1013.78, 832 1071.53Q933.64 1013.17, 992 1114.81Q1063.27 1090.08, 1088 1161.35Q1109.13 1022.48, 1248 1043.62Q1313.23 948.85, 1408 1014.07Q1400.97 911.04, 1504 904Q1574.88 814.88, 1664 885.76Q1730.74 792.5, 1824 859.25Q1898.64 773.89, 1984 848.54z" fill="rgba(223, 223, 223, 1)"></path></g><defs><mask id="SvgjsMask1170"><rect width="1920" height="1080" fill="#ffffff"></rect></mask></defs></svg>