<svg xmlns="http://www.w3.org/2000/svg" version="1.1" xmlns:xlink="http://www.w3.org/1999/xlink" xmlns:svgjs="http://svgjs.dev/svgjs" width="1920" height="1080" preserveAspectRatio="none" viewBox="0 0 1920 1080"><g mask="url(&quot;#SvgjsMask1101&quot;)" fill="none"><rect width="1920" height="1080" x="0" y="0" fill="#1e3266"></rect><path d="M2016 1080L0 1080 L0 563.71Q37.19 504.9, 96 542.1Q197.01 483.12, 256 584.13Q389.42 557.55, 416 690.96Q469.87 584.83, 576 638.69Q595.55 562.24, 672 581.79Q775.29 525.08, 832 628.36Q917.19 617.55, 928 702.74Q982.73 661.47, 1024 716.2Q1049.47 645.67, 1120 671.15Q1133.64 588.79, 1216 602.43Q1309.21 535.64, 1376 628.86Q1440.23 597.09, 1472 661.32Q1484.93 578.26, 1568 591.19Q1627.54 554.74, 1664 614.28Q1690.55 544.83, 1760 571.37Q1822.9 538.27, 1856 601.18Q1992.49 577.67, 2016 714.17z" fill="#182f5d"></path><path d="M2016 1080L0 1080 L0 792.32Q34.57 666.89, 160 701.46Q264.52 645.98, 320 750.5Q442.83 713.33, 480 836.16Q536.96 733.12, 640 790.07Q733.03 723.1, 800 816.13Q829.86 749.99, 896 779.85Q963.07 686.92, 1056 753.99Q1122.1 724.09, 1152 790.18Q1194.03 672.21, 1312 714.24Q1407.71 649.95, 1472 745.67Q1548.39 726.06, 1568 802.45Q1603.76 742.21, 1664 777.96Q1737.26 755.22, 1760 828.48Q1775.47 747.95, 1856 763.43Q1944.53 691.96, 2016 780.5z" fill="#25467d"></path><path d="M1984 1080L0 1080 L0 917.61Q59.05 880.66, 96 939.72Q108.13 855.86, 192 867.99Q223.05 803.04, 288 834.09Q342.84 792.93, 384 847.78Q474.61 778.39, 544 869Q639.08 868.08, 640 963.16Q725.71 888.87, 800 974.57Q800.99 879.56, 896 880.55Q965.03 789.58, 1056 858.6Q1165.57 808.17, 1216 917.74Q1225 830.74, 1312 839.74Q1378.16 745.9, 1472 812.06Q1609.78 789.84, 1632 927.62Q1724.64 860.26, 1792 952.9Q1832.88 897.78, 1888 938.66Q1918.42 873.08, 1984 903.5z" fill="#356cb1"></path><path d="M1952 1080L0 1080 L0 988.65Q117.57 1010.22, 96 1127.8Q86.14 957.94, 256 948.08Q327.2 923.28, 352 994.47Q469.33 951.8, 512 1069.12Q586.93 1048.05, 608 1122.99Q641.7 1060.69, 704 1094.39Q769.65 1000.05, 864 1065.7Q904.44 1010.14, 960 1050.58Q1011.72 942.3, 1120 994.02Q1215.78 929.8, 1280 1025.59Q1381.35 966.94, 1440 1068.29Q1445.57 977.86, 1536 983.43Q1569.11 920.54, 1632 953.65Q1748.6 910.25, 1792 1026.86Q1852.86 927.72, 1952 988.58z" fill="white"></path></g><defs><mask id="SvgjsMask1101"><rect width="1920" height="1080" fill="#ffffff"></rect></mask></defs></svg>